<svg width="18" height="18" viewBox="0 0 18 18" fill="none" xmlns="http://www.w3.org/2000/svg">
<path d="M9.96429 9L17.5982 1.36607C17.8393 1.125 17.8393 0.642858 17.5982 0.401787C17.3571 0.160715 16.875 0.160715 16.6339 0.401787L9 8.03572L1.36607 0.401787C1.125 0.160715 0.642858 0.160715 0.401787 0.401787C0.160715 0.642858 0.160715 1.125 0.401787 1.36607L8.03572 9L0.401787 16.6339C0.160715 16.875 0.160715 17.3571 0.401787 17.5982C0.642858 17.8393 1.125 17.8393 1.36607 17.5982L9 9.96429L16.6339 17.5982C16.875 17.8393 17.3571 17.8393 17.5982 17.5982C17.8393 17.3571 17.8393 16.875 17.5982 16.6339L9.96429 9Z" fill="white"/>
<path fill-rule="evenodd" clip-rule="evenodd" d="M9.96429 9L17.5982 1.36607C17.8393 1.125 17.8393 0.642858 17.5982 0.401787C17.3571 0.160715 16.875 0.160715 16.6339 0.401787L9 8.03572L1.36607 0.401787C1.125 0.160715 0.642858 0.160715 0.401787 0.401787C0.160715 0.642858 0.160715 1.125 0.401787 1.36607L8.03572 9L0.401787 16.6339C0.160715 16.875 0.160715 17.3571 0.401787 17.5982C0.642858 17.8393 1.125 17.8393 1.36607 17.5982L9 9.96429L16.6339 17.5982C16.875 17.8393 17.3571 17.8393 17.5982 17.5982C17.8393 17.3571 17.8393 16.875 17.5982 16.6339L9.96429 9ZM9 10.2768L1.52233 17.7545C1.35097 17.9258 1.10859 18 0.883928 18C0.659265 18 0.416883 17.9258 0.245528 17.7545C0.074172 17.5831 0 17.3407 0 17.1161C0 16.8914 0.074172 16.649 0.245528 16.4777L7.7232 9L0.245528 1.52233C0.074172 1.35097 0 1.10859 0 0.883928C0 0.659265 0.074172 0.416883 0.245528 0.245528C0.416883 0.074172 0.659265 0 0.883928 0C1.10859 0 1.35097 0.074172 1.52233 0.245528L9 7.7232L16.4777 0.245528C16.649 0.074172 16.8914 0 17.1161 0C17.3407 0 17.5831 0.074172 17.7545 0.245528C17.9258 0.416883 18 0.659265 18 0.883928C18 1.10859 17.9258 1.35097 17.7545 1.52233L10.2768 9L17.7545 16.4777C17.9258 16.649 18 16.8914 18 17.1161C18 17.3407 17.9258 17.5831 17.7545 17.7545C17.5831 17.9258 17.3407 18 17.1161 18C16.8914 18 16.649 17.9258 16.4777 17.7545L9 10.2768Z" fill="white"/>
</svg>
