<svg width="22" height="24" viewBox="0 0 22 24" fill="none" xmlns="http://www.w3.org/2000/svg">
<path d="M7.25 3.25C6.55964 3.25 6 3.80964 6 4.5C6 5.19036 6.55964 5.75 7.25 5.75C7.94036 5.75 8.5 5.19036 8.5 4.5C8.5 3.80964 7.94036 3.25 7.25 3.25ZM3.71338 3.25C4.22818 1.79351 5.61723 0.75 7.25 0.75C8.88277 0.75 10.2718 1.79351 10.7866 3.25H19.75C20.4404 3.25 21 3.80964 21 4.5C21 5.19036 20.4404 5.75 19.75 5.75H10.7866C10.2718 7.20649 8.88277 8.25 7.25 8.25C5.61723 8.25 4.22818 7.20649 3.71338 5.75H2.25C1.55964 5.75 1 5.19036 1 4.5C1 3.80964 1.55964 3.25 2.25 3.25H3.71338ZM14.75 10.75C14.0596 10.75 13.5 11.3096 13.5 12C13.5 12.6904 14.0596 13.25 14.75 13.25C15.4404 13.25 16 12.6904 16 12C16 11.3096 15.4404 10.75 14.75 10.75ZM11.2134 10.75C11.7282 9.29351 13.1172 8.25 14.75 8.25C16.3828 8.25 17.7718 9.29351 18.2866 10.75H19.75C20.4404 10.75 21 11.3096 21 12C21 12.6904 20.4404 13.25 19.75 13.25H18.2866C17.7718 14.7065 16.3828 15.75 14.75 15.75C13.1172 15.75 11.7282 14.7065 11.2134 13.25H2.25C1.55964 13.25 1 12.6904 1 12C1 11.3096 1.55964 10.75 2.25 10.75H11.2134ZM7.25 18.25C6.55964 18.25 6 18.8096 6 19.5C6 20.1904 6.55964 20.75 7.25 20.75C7.94036 20.75 8.5 20.1904 8.5 19.5C8.5 18.8096 7.94036 18.25 7.25 18.25ZM3.71338 18.25C4.22818 16.7935 5.61723 15.75 7.25 15.75C8.88277 15.75 10.2718 16.7935 10.7866 18.25H19.75C20.4404 18.25 21 18.8096 21 19.5C21 20.1904 20.4404 20.75 19.75 20.75H10.7866C10.2718 22.2065 8.88277 23.25 7.25 23.25C5.61723 23.25 4.22818 22.2065 3.71338 20.75H2.25C1.55964 20.75 1 20.1904 1 19.5C1 18.8096 1.55964 18.25 2.25 18.25H3.71338Z" fill="white" stroke="#0D0D0D" stroke-linecap="round" stroke-linejoin="round"/>
</svg>
