<svg width="619" height="496" viewBox="0 0 619 496" fill="none" xmlns="http://www.w3.org/2000/svg">
<g clip-path="url(#clip0_95:1575)">
<path d="M201.772 268.449C171.12 271.872 169.678 309.887 184.823 330.066C203.575 343.218 251.717 363.037 239.095 319.436C188.429 316.373 186.626 249.351 238.194 244.307C250.094 242.505 281.828 251.513 277.681 267.008C272.813 290.249 181.758 295.474 204.116 269.71C245.586 222.506 323.118 256.198 340.968 309.347C356.475 359.794 333.756 346.461 315.725 377.63C314.283 380.153 319.692 374.567 320.413 371.865C324.019 356.01 342.05 365.559 336.461 347.362C341.148 329.346 329.068 332.949 328.347 316.554C326.183 304.482 301.481 271.332 286.516 277.818C284.713 278.538 283.811 280.34 283.992 282.322C284.893 294.393 279.304 306.644 269.567 313.851C261.634 306.284 278.222 289.348 280.926 280.7C283.451 275.836 278.041 270.611 273.353 273.494C261.093 285.024 255.503 302.14 248.111 317.094C235.85 337.453 247.57 360.334 244.685 381.774C244.685 381.774 245.226 448.256 169.317 423.573C101.161 401.412 151.286 355.29 185.545 383.576C219.803 411.862 256.765 488.793 336.461 495.279C416.156 501.765 364.588 402.272 269.567 426.054C174.546 449.836 33.5467 510.594 -52.0986 476.002" stroke="white" stroke-width="2.8" stroke-miterlimit="10" stroke-linecap="round" stroke-linejoin="round"/>
<path d="M117.028 280.16C142.451 281.601 168.956 267.368 194.199 270.251" stroke="white" stroke-width="2.8" stroke-miterlimit="10" stroke-linecap="round" stroke-linejoin="round"/>
<path d="M92.6865 238.541C133.436 230.794 176.348 238.721 214.754 219.624C252.438 201.967 297.514 188.815 334.116 214.939C337.181 217.462 334.477 222.506 330.69 221.065C318.61 216.741 305.628 215.119 293.006 216.561C304.005 231.515 336.28 227.191 342.23 245.568C343.853 271.692 310.135 249.171 296.793 252.414C293.006 253.135 291.384 256.558 286.335 253.675" stroke="white" stroke-width="2.8" stroke-miterlimit="10" stroke-linecap="round" stroke-linejoin="round"/>
<path d="M231.703 212.417C316.627 179.807 306.169 143.233 402.994 187.554C447.89 204.67 492.786 221.786 539.666 232.055C555.352 233.316 555.172 249.531 545.796 259.981C532.273 277.818 514.783 291.871 496.572 304.843C480.886 313.13 459.79 339.255 442.3 336.372C424.811 332.949 410.567 320.517 393.618 314.932C366.572 309.347 342.591 305.023 324.561 281.961C330.871 280.16 331.773 284.123 336.821 288.087C367.834 310.788 414.714 295.474 448.25 316.554C478.542 317.274 534.797 262.323 549.582 236.379" stroke="white" stroke-width="2.8" stroke-miterlimit="10" stroke-linecap="round" stroke-linejoin="round"/>
<path d="M286.876 199.085C305.808 178.906 333.755 168.817 359.9 180.888C412.189 197.824 463.576 217.462 515.143 235.839C534.616 242.685 504.145 257.279 498.916 265.206C474.394 293.312 438.513 265.386 409.664 259.261C384.061 251.874 351.245 233.677 330.69 221.245" stroke="white" stroke-width="2.8" stroke-miterlimit="10" stroke-linecap="round" stroke-linejoin="round"/>
<path d="M338.263 166.294C333.936 151.521 337.902 137.828 343.131 123.414C357.195 90.2637 361.342 53.87 371.98 19.9986C373.964 13.6927 378.291 8.28769 384.061 5.22485C408.222 -7.38685 441.759 12.7919 467.182 15.8547C511.537 28.8267 560.941 33.1507 605.476 44.5013C631.621 54.0501 609.623 87.381 604.395 105.037C593.216 146.836 585.282 189.716 569.055 230.073C565.809 238.181 558.417 236.559 549.582 236.559" stroke="white" stroke-width="2.8" stroke-miterlimit="10" stroke-linecap="round" stroke-linejoin="round"/>
<path d="M361.884 159.268C382.259 164.673 558.417 235.118 556.434 212.777C561.843 180.888 601.33 96.3893 591.413 66.1213C578.251 47.5641 550.845 47.7442 530.47 42.159C496.212 37.6549 440.317 15.134 403.174 18.5572C392.897 19.458 383.701 25.944 379.554 35.4929C371.26 53.8699 368.375 76.7511 361.343 94.5877C357.917 109.542 340.428 154.403 361.884 159.268Z" stroke="white" stroke-width="2.8" stroke-miterlimit="10" stroke-linecap="round" stroke-linejoin="round"/>
<path d="M550.664 251.874C595.56 299.438 527.405 355.83 486.836 378.891" stroke="white" stroke-width="2.8" stroke-miterlimit="10" stroke-linecap="round" stroke-linejoin="round"/>
<path d="M311.759 171.339C244.685 161.25 175.448 178.546 123.159 221.786" stroke="white" stroke-width="2.8" stroke-miterlimit="10" stroke-linecap="round" stroke-linejoin="round"/>
<path d="M214.213 285.925C208.444 264.846 272.813 249.712 263.978 279.619" stroke="white" stroke-width="2.8" stroke-miterlimit="10" stroke-linecap="round" stroke-linejoin="round"/>
<path d="M445.907 160.169C447.89 162.691 452.758 160.889 453.299 157.646C454.561 149.719 440.497 145.755 440.858 155.845C440.678 165.574 453.84 170.258 459.79 162.511C478.722 132.783 450.414 84.3182 477.28 60.1758C492.966 55.4915 487.557 93.6869 472.772 95.8489C461.593 98.1911 448.431 98.9117 441.94 109.722C426.253 130.261 461.954 154.223 476.198 136.026C480.525 128.279 476.919 116.748 468.805 113.145C453.66 106.299 443.563 129.54 460.872 132.603C456.545 133.324 453.66 127.378 455.643 123.414C469.166 108.641 489.541 124.676 470.609 140.891" stroke="white" stroke-width="2.8" stroke-miterlimit="10" stroke-linecap="round" stroke-linejoin="round"/>
<path d="M468.444 72.9676C472.23 64.3196 484.311 66.6618 484.131 75.8503C478.181 98.191 432.022 91.5248 438.694 124.135" stroke="white" stroke-width="2.8" stroke-miterlimit="10" stroke-linecap="round" stroke-linejoin="round"/>
<path d="M326.724 210.075C330.149 207.372 334.837 206.471 338.804 208.453L412.189 242.865C419.04 246.108 420.663 255.117 415.434 260.522" stroke="white" stroke-width="2.8" stroke-miterlimit="10" stroke-linecap="round" stroke-linejoin="round"/>
<path d="M313.742 254.576C311.398 256.198 311.758 259.801 314.283 261.062C316.446 260.522 383.34 296.735 383.52 289.709L395.781 272.953C397.223 271.151 396.502 268.449 394.519 267.368L336.46 237.28" stroke="white" stroke-width="2.8" stroke-miterlimit="10" stroke-linecap="round" stroke-linejoin="round"/>
</g>
<defs>
<clipPath id="clip0_95:1575">
<rect width="672" height="496" fill="white" transform="translate(-53)"/>
</clipPath>
</defs>
</svg>
