<svg width="633" height="346" viewBox="0 0 633 346" fill="none" xmlns="http://www.w3.org/2000/svg">
<g clip-path="url(#clip0_95:1568)">
<path d="M400.17 309C401.172 305.051 402.03 300.959 403.247 297.082C405.679 289.257 408.899 281.718 412.763 274.467C412.977 274.036 413.192 273.606 413.478 272.96C412.262 272.816 411.189 272.672 410.044 272.529C390.797 270.447 371.98 266.355 353.306 261.401C343.862 258.888 334.846 259.75 325.831 263.052C318.462 265.78 311.736 269.657 304.939 273.606C297.999 277.626 291.059 281.575 283.403 284.016C275.175 286.672 266.876 287.318 258.433 284.949C250.205 282.652 244.982 277.052 240.903 269.872C238.328 265.349 235.68 260.755 232.532 256.591C229.599 252.714 225.592 249.914 220.369 250.129C218.223 250.201 216.076 251.062 214.001 251.709C211.712 252.427 209.422 253.503 207.133 254.15C205.773 254.509 204.271 254.652 202.911 254.58C198.046 254.365 195.399 251.852 194.826 246.97C194.612 245.032 194.612 243.022 194.397 241.083C193.324 233.545 185.74 229.022 179.944 228.447C171.645 227.658 164.776 231.032 158.909 236.488C154.688 240.437 150.753 244.745 147.247 249.339C133.438 267.288 115.694 279.421 94.3724 286.6C81.9946 290.764 69.259 293.134 56.2372 293.852C46.7213 294.354 37.2053 294.139 27.6894 292.775C19.8906 291.626 12.378 289.329 6.58263 283.585C0.572567 277.698 -1.35924 270.519 0.930309 262.406C2.64747 256.375 7.29811 253.575 13.022 252.283C15.0253 251.78 17.1002 251.278 19.1036 250.847C23.0387 249.914 26.1869 247.688 28.6195 244.529C30.6229 241.945 32.4116 239.288 34.2718 236.704C42.643 225.432 57.4535 222.848 69.0443 230.745C73.9812 234.119 78.5603 238.14 83.4256 241.658C85.4289 243.093 87.7185 244.027 90.0796 244.888C87.2176 242.447 85.7867 239.432 85.4289 235.842C84.9281 230.601 88.0046 225.504 92.5122 224.283C96.8051 223.135 100.311 224.714 103.101 227.801C106.035 230.96 106.75 234.837 105.105 238.786C104.175 241.011 102.457 242.95 101.17 244.96C105.462 244.314 108.825 241.873 111.401 238.14C114.263 234.047 115.479 229.453 115.837 224.499C116.123 220.048 115.05 211.002 113.547 206.335C113.118 206.479 112.689 206.622 112.26 206.838C96.8051 214.017 78.2025 204.397 75.1975 187.525C73.051 175.464 76.1992 164.408 82.7101 154.428C86.7883 148.182 91.439 142.295 96.3758 136.695C99.1662 133.536 99.8101 130.593 99.1662 126.572C97.8068 117.598 96.8766 108.552 97.5206 99.4342C98.0214 91.6805 99.8101 84.3576 104.89 78.1833C106.106 76.6756 107.609 75.3116 109.183 74.2346C112.331 72.1526 114.907 72.9424 116.767 76.2449C120.988 83.5678 121.704 91.3933 120.13 99.5778C117.912 111.065 112.045 120.613 104.675 129.372C102.529 131.885 101.742 134.182 102.386 137.413C103.817 144.88 104.819 152.346 106.035 159.956C115.622 160.1 121.99 164.982 125.568 173.454C129.145 181.782 127.786 189.822 122.777 197.863C125.424 197.433 127.642 197.145 129.789 196.715C141.523 194.13 151.396 188.387 159.267 179.341C167.638 169.72 169.57 158.52 165.849 146.459C163.417 138.634 160.412 130.952 157.764 123.198C157.049 121.044 156.476 118.747 156.047 116.449C154.974 110.203 158.122 105.608 164.418 104.891C167.853 104.46 171.43 104.603 174.864 105.25C183.092 106.829 189.389 103.742 194.683 97.783C198.905 93.0446 202.625 87.9472 204.557 81.773C205.63 78.2551 205.916 74.6654 204.915 71.0757C203.484 72.6552 202.196 74.3064 200.693 75.5987C197.474 78.1833 193.682 79.1884 189.603 78.4705C182.377 77.1782 180.016 69.2809 184.881 63.5374C189.818 57.7221 197.76 57.7221 202.911 63.6092C203.412 64.1835 203.841 64.7579 204.557 65.4758C205.559 60.9528 205.415 56.717 205.272 52.4812C204.915 42.2147 204.628 31.9482 204.628 21.6817C204.628 14.6459 205.129 7.61011 205.415 0.0717773C208.421 0.430746 211.354 0.502539 214.144 1.14868C229.098 4.66657 243.98 8.32805 258.934 11.9895C259.363 12.0613 259.721 12.2767 260.15 12.4203C260.293 15.0049 260.436 17.5176 260.508 20.1022C260.651 25.6303 260.794 31.0866 260.937 36.6148C261.295 47.671 261.652 58.7272 262.01 69.7834C262.01 70.7168 262.01 71.7219 261.939 72.6552C261.652 75.8859 261.724 75.8141 264.586 77.3218C275.604 83.0653 282.33 92.1113 284.977 104.316C286.694 112.214 284.405 119.68 282.258 127.147C280.613 132.818 278.753 138.418 277.751 144.233C275.032 159.454 287.41 173.382 302.578 172.448C310.234 171.946 316.53 168.572 321.038 162.254C322.111 160.746 322.683 158.808 323.041 157.013C323.399 155.003 322.326 153.782 320.608 153.279C319.535 155.864 318.677 158.52 317.317 160.89C313.525 167.495 304.725 170.941 297.355 168.931C292.061 167.423 290.558 162.684 293.921 158.305C296.282 155.218 299.716 153.782 303.151 152.49C307.801 150.767 312.595 150.121 317.532 150.623C317.818 150.623 318.104 150.623 318.677 150.623C318.82 146.387 318.963 142.223 319.106 138.059C319.464 127.936 319.821 117.885 320.179 107.762C320.394 100.87 320.68 94.0497 320.895 87.1575C320.895 86.655 320.608 86.0806 320.251 85.6498C318.319 83.2807 316.673 80.7679 315.886 77.7525C315.171 75.2398 316.745 73.5885 319.32 74.0193C321.252 74.3782 322.54 75.6705 322.826 77.9679C323.041 79.7628 323.113 81.5576 322.969 83.2807C322.826 84.7883 323.041 85.937 324.329 86.8703C328.336 89.7421 332.342 92.6138 336.349 95.5574C338.209 96.9215 339.998 98.3573 341.858 99.7932C345.436 92.542 352.161 89.5267 359.316 87.3729C364.539 85.8652 369.977 84.8601 375.057 83.0653C385.36 79.4756 390.583 71.3629 390.225 60.3785C390.01 52.8401 391.937 45.589 387 39.8455C387 37.8455 387.212 40.7135 388.293 39.8455C389.796 42.1429 387.077 42.9326 388.293 45.3018C392.443 53.4863 393.659 62.0297 390.511 70.8603C388.007 77.8243 383.07 82.3473 376.273 84.7165C371.05 86.5114 365.541 87.6601 360.175 89.1677C354.594 90.7472 349.371 92.901 345.507 97.4958C345.221 97.8548 344.935 98.2855 344.649 98.6445C343.075 101.157 343.075 101.157 344.863 103.526C347.868 107.475 349.514 111.783 348.512 116.88C344.219 115.66 341.93 112.716 341.143 108.624C340.785 106.757 341.071 104.819 340.928 102.952C340.857 102.378 340.57 101.588 340.141 101.229C335.705 97.8548 331.269 94.6241 326.833 91.3215C325.617 90.3882 324.4 89.4549 322.826 88.3062C322.039 109.342 321.324 130.018 320.537 150.767C324.257 152.49 325.974 154.715 324.472 159.597C323.971 161.105 323.184 162.613 322.254 163.833C316.816 170.869 309.59 174.387 300.789 174.387C286.408 174.315 274.531 161.32 275.533 146.89C275.962 140.141 278.252 133.895 280.184 127.506C281.901 121.834 283.761 116.162 283.689 110.06C283.546 102.162 280.827 95.2702 276.105 89.0959C272.599 84.5729 268.306 81.0551 263.155 78.6859C262.654 78.4705 262.082 78.2551 261.724 78.0397C260.365 80.7679 259.363 83.496 257.789 85.8652C255.285 89.6703 251.636 92.1831 246.985 92.6138C241.905 93.1164 236.181 89.4549 236.825 83.855C237.183 80.5525 239.186 78.3269 241.834 76.6038C246.627 73.5885 251.85 73.5885 257.145 74.6654C258.004 74.809 258.862 75.0244 260.222 75.3116C260.436 54.7068 259.005 34.461 258.647 13.569C241.691 9.54854 224.734 5.4563 207.562 1.36406C207.276 5.95886 206.846 10.0511 206.775 14.1433C206.703 23.4765 206.703 32.8097 206.775 42.1429C206.846 47.8146 207.204 53.4863 207.347 59.158C207.419 60.4503 207.347 61.8143 206.99 63.0348C206.131 66.4091 206.417 69.5681 207.204 72.9424C208.277 77.4654 207.061 81.9884 205.058 86.0806C201.767 92.901 197.259 98.7881 191.392 103.526C186.527 107.403 181.089 108.265 175.079 107.332C172.002 106.901 168.783 106.542 165.706 106.757C159.481 107.116 156.405 111.352 158.122 117.311C159.982 123.772 162.272 130.09 164.49 136.408C166.779 142.941 169.212 149.403 169.498 156.438C169.856 165.054 167.209 172.736 161.771 179.341C152.327 190.828 140.163 197.576 125.496 199.443C122.491 199.802 120.559 200.95 118.341 202.817C115.908 204.756 115.479 206.479 116.195 209.422C117.626 215.309 118.413 221.34 117.483 227.371C116.409 234.55 113.619 240.796 107.251 244.888C104.175 246.827 100.812 247.473 97.1628 247.257C95.231 247.114 93.2277 247.473 91.2959 247.257C86.0013 246.755 81.9946 243.452 77.9879 240.365C74.4105 237.637 71.0477 234.765 67.3272 232.253C57.3104 225.504 43.6447 227.801 36.2752 237.422C34.558 239.647 32.9124 241.945 31.4099 244.242C27.9756 249.411 23.2534 252.427 17.1718 253.575C14.8822 254.006 12.6642 254.58 10.4462 255.37C5.22321 257.165 2.21818 261.329 1.93199 266.785C1.5027 275.76 5.86714 282.867 14.0952 286.959C20.3915 290.118 27.1886 291.339 34.0572 291.841C50.2987 293.134 66.4686 292.272 82.3523 288.323C97.3059 284.662 111.258 278.775 123.85 269.729C132.222 263.698 139.305 256.303 145.744 248.191C150.109 242.663 154.545 237.206 160.34 232.97C166.422 228.519 173.004 225.863 180.66 226.868C187.886 227.801 194.612 233.473 195.971 240.078C196.329 241.801 196.329 243.668 196.472 245.391C196.973 251.709 200.336 254.15 206.489 252.57C208.635 251.996 210.782 251.206 212.857 250.273C221.943 246.181 228.526 248.98 234.249 255.873C236.897 259.032 238.757 262.765 240.903 266.211C242.406 268.652 243.765 271.165 245.411 273.534C249.919 280.283 256.501 283.37 264.3 284.375C274.603 285.667 284.047 282.723 292.991 278.057C300.217 274.324 307.157 270.16 314.312 266.283C321.682 262.334 329.337 259.319 337.637 258.242C343.575 257.452 349.228 258.457 354.952 259.965C372.552 264.56 390.296 268.365 408.327 270.519C408.899 270.59 409.543 270.519 410.115 270.662C413.693 271.883 415.195 270.016 416.912 267.144C425.999 251.709 436.445 237.206 450.254 225.576C460.056 217.319 471.146 212.15 484.096 211.432C490.536 211.073 496.832 212.079 502.699 214.878C509.281 217.966 512.215 222.848 511.929 230.171C511.642 238.57 508.208 245.678 502.556 251.709C495.759 259.032 487.03 263.267 477.729 266.426C463.276 271.38 448.394 273.606 433.154 273.749C427.859 273.821 422.565 273.534 417.27 273.247C415.982 273.175 415.41 273.606 414.838 274.683C409.114 285.595 404.678 297.082 401.959 309.144C401.315 309 400.742 309 400.17 309ZM416.841 271.093C417.27 271.237 417.485 271.308 417.699 271.308C436.946 272.601 455.906 271.237 474.366 265.421C483.381 262.621 491.895 258.888 498.978 252.427C505.561 246.396 509.711 239.073 509.997 229.883C510.211 223.494 507.636 218.971 501.697 216.386C493.183 212.653 484.526 212.437 475.654 214.519C464.778 217.032 455.692 222.776 447.678 230.386C436.087 241.299 426.858 254.15 418.701 267.79C418.057 268.796 417.485 269.872 416.841 271.093ZM100.168 135.116C97.3059 138.562 94.6586 141.649 92.0829 144.88C86.5737 151.7 81.4937 158.736 78.8465 167.207C76.5569 174.602 75.6268 182.069 77.8448 189.607C81.7084 202.961 96.5189 210.643 109.398 205.976C113.404 204.54 113.333 204.54 112.546 200.376C112.26 198.653 111.616 197.72 109.827 197.217C107.251 196.499 104.819 195.279 102.457 194.13C98.2361 192.12 95.0164 189.105 92.5837 185.084C87.5038 176.612 90.2226 166.705 98.9515 162.254C100.597 161.392 102.457 160.818 104.246 160.172C102.887 151.987 101.527 143.803 100.168 135.116ZM101.527 130.664C103.101 128.726 104.389 127.147 105.606 125.567C111.401 118.172 116.052 110.203 118.127 100.942C119.987 92.6856 119.629 84.7165 115.336 77.1782C113.905 74.6654 112.116 74.1629 109.97 75.9577C108.253 77.3936 106.607 79.0448 105.319 80.8397C101.098 86.655 99.5955 93.4036 99.4524 100.439C99.3093 106.47 99.7386 112.501 100.096 118.46C100.383 122.336 100.955 126.213 101.527 130.664ZM106.75 162.038C106.75 162.469 106.679 162.684 106.75 162.972C108.968 173.812 111.115 184.725 113.404 195.566C113.476 195.997 113.977 196.571 114.334 196.643C116.195 197.074 118.055 197.361 119.987 197.576C120.344 197.648 120.917 197.145 121.203 196.786C126.855 189.248 127.213 178.479 121.919 170.582C118.413 165.197 113.547 162.038 106.75 162.038ZM104.604 162.469C97.2344 163.546 90.8666 169.72 92.0829 178.12C92.8699 183.505 95.875 187.597 100.239 190.684C103.602 193.053 107.323 194.561 111.401 195.781C109.111 184.51 106.822 173.454 104.604 162.469ZM318.104 152.274C312.38 151.7 306.799 152.346 301.648 155.003C299.358 156.151 297.069 157.659 295.352 159.526C292.776 162.397 293.921 165.484 297.57 166.777C306.585 169.792 317.746 161.967 318.104 152.274ZM104.031 234.909C104.031 230.458 100.383 226.437 95.9465 225.935C91.7967 225.504 88.6486 228.088 87.6469 232.827C86.5021 238.068 89.3641 243.022 94.5155 244.601C95.231 244.816 96.1612 244.888 96.9482 244.673C100.883 243.381 103.96 239.073 104.031 234.909ZM191.678 76.8192C196.758 76.891 201.409 73.9475 203.412 69.2809C203.627 68.7783 203.77 67.9168 203.484 67.486C200.264 61.599 192.966 58.0093 186.813 64.2553C184.452 66.6245 183.593 69.9988 184.666 72.5834C186.026 75.5987 188.459 76.8192 191.678 76.8192ZM259.22 77.0346C255.07 75.4551 249.919 75.0962 245.983 76.4603C244.266 77.0346 242.549 78.0397 241.118 79.2602C238.542 81.414 237.755 84.3576 238.9 86.7268C239.973 89.0959 243.551 90.9626 246.341 90.6754C252.78 90.0293 258.934 83.6396 259.22 77.0346ZM342.86 103.742C342.073 107.978 344.005 112.572 346.938 113.793C347.01 109.916 345.436 106.829 342.86 103.742ZM320.608 83.1371C320.823 83.0653 320.966 83.0653 321.181 82.9935C321.181 81.414 321.252 79.8346 321.109 78.2551C321.038 77.5372 320.751 76.6038 320.251 76.1731C319.678 75.7423 318.748 75.7423 317.961 75.5987C317.889 76.2449 317.603 76.9628 317.818 77.4654C318.677 79.4038 319.678 81.2704 320.608 83.1371ZM115.05 203.176C116.552 201.812 117.697 200.735 119.057 199.515C117.268 199.227 115.765 199.012 114.048 198.725C114.406 200.233 114.692 201.453 115.05 203.176Z" fill="white"/>
</g>
<path d="M401.169 308.655C397.156 321.665 390.875 345.791 369.099 344.417C341.879 342.701 345.312 309.84 365.176 298.069C385.039 286.298 537.483 337.372 632.317 296.012" stroke="white" stroke-width="1.77"/>
<defs>
<clipPath id="clip0_95:1568">
<rect width="512" height="309" fill="white"/>
</clipPath>
</defs>
</svg>
