<svg width="685" height="736" viewBox="0 0 685 736" fill="none" xmlns="http://www.w3.org/2000/svg">
<path d="M457.594 299.807C454.325 298.565 451.056 296.91 447.786 296.083C436.632 293.6 425.286 292.151 415.478 285.53C406.632 279.53 398.555 272.909 396.824 260.702C395.67 252.425 398.554 246.011 405.862 243.528C412.209 241.252 419.324 239.597 426.055 239.39C437.978 239.183 450.094 240.218 462.017 240.839C465.864 241.046 469.71 240.839 473.748 240.839C470.864 234.838 466.633 231.321 459.902 231.114C451.248 230.907 442.786 231.735 434.132 232.562C419.132 234.011 404.324 236.08 389.323 237.114C368.938 238.563 354.708 227.183 343.746 210.01C335.476 197.181 332.592 182.284 331.63 166.973C330.092 149.179 330.669 131.385 336.246 114.005C337.015 111.936 337.592 109.867 338.553 107.798C344.13 96.0044 349.323 93.5215 359.9 100.349C381.631 114.005 402.978 128.075 424.324 142.558C429.709 146.283 434.132 151.869 438.94 156.628C440.286 158.076 441.825 159.111 443.363 160.559C443.94 160.352 444.325 160.145 444.902 159.731C442.209 152.49 440.863 143.8 436.44 138.213C413.939 110.488 391.054 82.9693 365.092 58.5544C359.9 53.7956 354.515 49.0367 346.053 47.1746C347.4 52.7611 348.169 57.313 349.323 61.8649C350.669 66.6238 352.592 71.1757 353.554 76.1414C353.938 78.0036 352.784 81.521 351.631 82.1417C349.9 82.9693 346.823 82.3486 345.284 81.1072C343.361 79.6588 341.823 76.7621 341.438 74.2793C340.284 67.8652 339.515 61.4511 338.938 54.8301C338.553 50.8989 340.669 48.416 343.553 45.5193C354.515 34.7602 368.362 34.7602 381.439 33.7257C409.324 31.6566 437.402 31.2428 465.287 30.2083C466.633 30.2083 468.171 30.4152 469.518 30.4152C486.441 32.6912 489.326 36.0017 491.249 54.2094C492.787 68.0721 496.633 81.1072 504.711 92.2801C509.903 99.7287 516.249 103.246 525.48 104.488C523.365 102.419 521.826 101.177 520.288 99.5218C505.48 82.5555 498.172 62.2787 498.941 38.8983C499.326 30.829 502.787 23.3804 507.98 17.587C517.788 6.8279 529.711 0 544.134 0C553.558 0 559.904 4.55193 563.366 14.0696C568.943 29.5876 568.75 45.7262 567.404 62.0718C566.635 72.0033 563.558 81.1072 558.558 89.5903C553.558 98.2804 546.25 103.867 537.019 107.384C539.134 107.798 541.442 108.419 543.557 108.626C553.558 109.453 557.212 114.626 553.942 124.764C547.404 144.214 540.288 163.663 533.365 183.526C546.058 189.112 559.712 195.526 573.75 200.906C597.02 210.01 620.482 218.286 644.137 226.769C647.021 227.804 650.098 228.217 653.175 228.424C654.137 228.631 656.06 228.01 656.252 227.39C657.214 224.493 658.945 222.838 661.06 224.907C662.214 225.941 661.445 229.045 661.637 232.149C661.637 232.149 663.175 232.562 663.368 232.562C665.483 230.286 666.829 228.631 668.368 227.39C668.752 227.183 671.06 228.631 671.253 229.252C671.445 231.321 670.676 233.39 670.291 236.287C671.445 236.907 673.368 237.942 674.137 238.356C677.214 236.08 679.137 234.218 681.637 232.976C682.022 232.769 684.714 235.873 684.33 236.907C683.753 238.977 682.022 240.632 680.099 243.322C680.868 247.046 682.214 252.012 682.791 257.184C683.753 265.46 681.253 267.736 673.945 265.667C661.06 261.943 648.56 257.184 639.136 246.011C638.752 245.598 638.56 245.184 637.983 244.977C624.328 240.011 610.482 235.045 596.828 229.873C593.943 228.838 592.02 228.838 589.905 231.735C586.058 236.287 580.481 237.528 574.904 237.114C560.866 235.873 546.827 234.631 532.98 232.562C523.942 231.114 522.211 228.01 522.403 218.286C522.596 214.355 522.788 210.423 522.98 206.285C520.865 206.078 519.326 205.665 517.595 205.458C517.018 211.044 517.019 216.424 515.865 221.596C513.942 231.114 508.941 237.735 499.326 238.977C494.903 239.597 490.672 240.839 486.249 242.701C490.672 242.701 495.48 243.735 499.518 242.494C513.749 238.563 527.596 240.011 541.25 244.149C555.289 248.287 569.327 252.425 582.981 257.598C600.674 264.219 606.059 279.116 597.597 297.117C594.52 303.738 590.674 309.945 586.251 315.532C573.366 332.291 560.096 348.637 547.019 365.189C546.25 366.017 545.673 367.051 544.711 368.086C565.289 399.536 585.674 430.985 606.059 462.228C605.482 462.642 604.905 463.056 604.328 463.677C584.135 432.641 563.942 401.605 543.173 370.155C519.134 398.501 495.48 426.227 471.633 454.366C478.556 454.986 485.479 455.4 492.21 456.228C494.518 456.435 496.826 456.642 498.749 457.676C500.672 458.711 502.211 460.78 503.941 462.228C502.211 463.676 500.864 465.539 498.941 466.366C495.864 467.401 492.787 468.022 489.518 468.228C467.21 469.263 445.094 470.918 422.786 467.815C420.478 467.401 418.363 466.987 416.247 466.366C408.97 463.983 411.162 456.491 417.591 455.26C420.997 454.607 425.033 454.553 427.209 454.366C435.863 453.538 444.517 453.124 452.979 452.504C459.902 452.09 461.248 451.055 461.056 443.814C460.863 415.467 460.671 386.914 459.902 358.568C459.517 344.706 455.863 331.464 451.44 318.428C449.517 312.842 446.055 310.359 440.671 310.152C431.247 309.738 421.824 309.325 412.401 308.083C409.709 307.669 407.208 304.98 404.708 303.531C407.208 302.29 409.516 300.014 412.016 299.807C425.67 299.186 439.132 299.186 452.786 299.186C454.71 298.359 456.248 299.393 457.594 299.807C459.517 301.669 462.21 303.324 462.787 305.6C464.133 310.773 464.902 316.359 465.094 321.946C465.671 361.672 466.056 401.398 466.633 441.124C466.633 445.055 467.017 449.193 467.21 453.124C467.787 453.331 468.364 453.538 468.748 453.952C493.941 426.227 517.595 397.053 541.827 368.293C537.211 361.672 532.788 355.672 528.75 349.257C513.172 324.843 491.441 309.531 465.479 301.048C462.979 300.014 460.287 300.221 457.594 299.807ZM497.98 169.663C498.364 172.146 498.941 174.836 499.326 177.732C500.672 186.629 500.48 195.319 492.595 200.906C487.787 204.216 482.21 207.32 476.633 208.768C464.71 211.665 454.325 204.216 451.44 191.595C449.709 184.353 448.363 177.112 446.632 170.077C446.248 168.422 445.671 166.559 444.709 165.525C434.901 156.628 425.286 147.731 415.093 139.248C409.516 134.696 403.362 130.972 397.208 127.04C383.939 118.557 370.477 110.074 357.015 102.005C349.9 97.8666 347.207 98.9011 342.592 105.936C341.823 107.177 341.053 108.419 340.284 109.867C335.092 121.04 333.553 133.041 333.169 145.455C332.592 163.663 333.361 181.664 339.899 198.837C349.13 223.045 368.554 236.907 392.593 235.252C409.901 234.011 426.824 230.907 444.132 228.838C455.863 227.39 467.21 227.597 475.864 238.563C477.018 240.011 479.518 240.632 481.441 240.425C488.364 239.39 495.287 237.942 502.211 236.494C506.826 235.459 510.48 232.562 511.826 228.01C513.557 222.01 514.326 215.596 514.903 209.389C515.095 208.147 512.98 206.078 511.634 205.665C508.365 204.423 504.711 204.423 501.441 203.182C499.903 202.561 498.941 200.699 497.787 199.251C499.326 198.423 500.864 196.975 502.211 197.181C506.249 198.216 510.095 200.285 514.134 201.733C517.403 202.768 522.403 205.044 524.134 203.596C527.98 200.078 529.903 202.147 532.98 204.009C536.25 206.078 539.711 207.527 543.173 208.768C548.558 210.837 554.135 212.079 559.712 214.148C561.058 214.562 561.635 216.838 562.596 218.286C561.058 219.114 559.327 220.769 558.173 220.562C551.635 218.493 544.711 216.838 539.134 213.113C534.904 210.423 530.865 208.561 524.903 207.941C524.903 212.906 525.288 217.458 524.711 221.803C524.134 226.976 526.249 230.08 530.48 230.493C546.442 232.562 562.596 234.218 578.558 235.459C582.597 235.873 586.828 233.804 589.328 229.459C584.328 227.804 579.52 226.769 575.289 224.493C572.981 223.459 571.635 220.355 569.904 218.079C572.02 216.631 574.135 214.562 576.443 213.941C579.52 213.32 582.789 213.527 585.866 214.148C594.713 215.803 596.251 218.493 594.135 227.39C596.443 228.217 598.943 229.045 601.251 230.08C611.251 234.218 621.251 238.356 631.252 242.494C634.521 243.942 637.021 244.977 636.636 238.977C636.444 235.873 637.79 232.562 638.56 229.459C590.866 212.699 544.134 192.009 497.98 169.663ZM543.173 365.81C543.75 365.396 544.134 365.396 544.327 365.189C555.289 351.533 566.635 338.085 577.212 324.222C583.943 315.532 590.482 306.428 595.482 296.496C603.943 279.737 598.751 266.081 582.212 260.081C566.635 254.494 550.673 249.529 534.711 245.598C526.826 243.528 518.365 242.701 510.48 243.528C499.326 244.77 488.364 247.46 477.402 243.115C477.018 242.908 476.441 243.115 476.056 243.115C463.748 242.701 451.44 241.459 439.132 241.666C429.132 241.873 418.94 242.494 409.132 244.77C399.131 247.046 395.67 257.391 400.862 267.116C403.17 271.461 406.632 275.392 410.093 278.702C420.093 288.013 432.401 290.703 445.094 292.979C481.825 300.014 512.403 317.394 533.365 351.74C536.634 356.706 539.904 361.051 543.173 365.81ZM529.134 180.629C529.519 180.836 529.903 181.043 530.48 181.25C531.442 179.594 532.596 177.939 533.173 176.077C538.942 160.766 544.519 145.455 550.096 129.937C551.442 126.42 552.212 122.695 552.788 118.971C553.365 115.454 551.635 112.764 548.365 111.936C542.019 110.281 535.673 107.591 529.326 107.384C513.172 106.97 503.364 97.6597 496.633 82.9693C491.826 72.2102 489.518 60.6235 488.172 48.8298C487.21 38.6914 484.518 36.0017 475.287 33.7257C473.941 33.3119 472.402 33.105 471.056 33.105C444.709 30.6221 418.17 32.4843 392.016 34.7602C379.708 35.7948 367.592 38.2776 355.477 40.3467C352.977 40.7605 350.861 42.4157 347.592 44.071C365.862 51.9334 377.016 67.4514 389.516 79.4519C402.401 77.7967 414.516 77.7967 426.247 82.7624C437.017 87.3144 444.517 96.0044 450.671 106.143C462.787 125.592 478.749 136.144 501.249 133.454C507.018 132.834 513.172 133.661 518.942 134.282C527.019 135.317 532.211 140.489 533.942 148.765C535.48 155.8 535.288 162.835 532.596 169.456C531.442 173.387 530.48 177.112 529.134 180.629ZM566.25 41.5881C566.25 33.5188 564.135 20.8975 560.673 13.242C558.365 8.27624 555.096 4.55193 549.711 3.3105C531.634 -0.827624 507.788 14.6903 502.403 33.5188C498.941 45.7262 501.826 57.1061 505.48 68.279C509.711 81.9348 516.057 94.1423 527.596 102.212C529.711 103.66 532.98 104.281 535.673 103.867C545.673 102.212 552.788 95.7975 557.981 86.6936C564.519 74.6931 566.058 61.4511 566.25 41.5881ZM526.634 181.457C528.75 175.043 530.673 169.87 531.827 164.697C535.865 147.938 528.942 137.593 513.172 136.765C504.903 136.144 496.634 136.144 488.172 135.937C477.787 135.523 468.556 132.42 461.633 123.523C454.902 115.04 448.171 106.35 441.44 98.0735C428.94 82.7624 412.401 80.6934 393.554 81.521C395.478 83.1762 396.439 84.0039 397.593 84.8315C413.555 97.8666 426.44 113.385 436.824 131.799C442.786 142.144 450.479 151.455 457.402 161.18C463.364 155.386 470.287 155.386 476.441 153.938C484.325 152.076 490.672 154.352 494.903 162.214C495.287 163.042 495.864 164.076 496.633 164.49C506.634 170.077 516.442 175.663 526.634 181.457ZM449.132 169.456C451.056 177.732 452.786 185.181 454.133 192.63C455.286 199.457 459.133 203.596 464.902 204.837C469.133 205.872 473.748 206.492 477.979 205.665C489.903 203.596 498.172 193.664 497.403 182.905C497.018 178.56 496.441 174.008 495.095 169.87C494.326 167.18 492.21 164.49 489.903 163.249C480.095 157.869 469.902 159.938 459.902 163.042C462.979 168.215 465.864 173.387 468.941 178.353C468.556 178.767 467.979 179.181 467.594 179.594C460.671 179.181 456.056 173.18 449.132 169.456ZM644.137 229.045C642.79 234.425 641.637 238.356 640.867 242.287C640.675 243.528 641.252 245.597 642.213 246.632C651.829 256.77 664.137 261.115 676.83 264.426C679.33 265.047 680.868 263.805 680.483 261.322C679.522 255.115 677.983 248.908 676.637 242.908C676.445 242.287 675.483 241.873 674.714 241.666C669.522 239.39 664.522 236.907 659.137 234.838C654.329 232.355 649.137 230.7 644.137 229.045ZM502.787 461.401C497.403 460.366 493.172 458.711 488.941 458.711C465.671 458.504 442.209 458.504 418.94 458.711C417.209 458.711 415.286 460.366 412.978 461.401C421.632 468.849 492.595 469.056 502.787 461.401ZM407.593 301.876C407.593 302.497 407.593 303.117 407.593 303.738C410.093 304.359 412.785 305.186 415.286 305.393C422.978 306.014 430.671 306.221 438.171 306.635C448.748 307.049 451.825 309.118 454.902 319.877C458.171 331.257 460.671 343.05 463.364 354.43C462.979 339.326 462.017 324.015 461.248 308.911C460.863 303.738 458.171 301.255 453.556 301.255C442.786 301.048 432.209 300.635 421.439 300.635C416.824 300.428 412.209 301.462 407.593 301.876ZM443.94 146.489C444.325 162.835 453.171 171.318 465.287 177.112C465.671 176.905 466.056 176.491 466.248 176.284C458.94 166.352 451.44 156.421 443.94 146.489ZM342.976 48.416C342.4 49.8644 341.053 51.3127 341.246 52.3472C342.207 60.2097 343.169 68.279 344.707 75.9345C345.092 77.5898 348.169 78.8312 349.9 80.0726C350.284 77.7967 351.246 75.3138 350.669 73.4517C348.554 65.5892 345.861 57.5199 342.976 48.416ZM571.827 218.286C577.212 223.872 583.943 224.493 590.482 225.528C591.059 225.528 592.405 223.665 592.789 222.217C593.174 221.183 592.789 219.32 592.212 218.7C588.751 214.562 577.02 214.148 571.827 218.286ZM429.709 125.799C421.632 111.109 411.055 98.9011 397.978 89.1765C408.747 101.384 419.132 113.591 429.709 125.799ZM559.135 218.286C559.327 217.458 559.712 216.631 559.904 215.596C553.558 213.734 547.404 211.665 541.058 209.803C540.865 210.63 540.673 211.251 540.48 212.079C546.634 214.148 552.788 216.217 559.135 218.286ZM464.902 454.78C464.517 451.883 464.133 449.607 463.94 447.538C463.748 445.469 463.94 443.193 463.94 441.951C464.71 453.124 459.133 455.4 449.517 454.78C446.44 454.573 443.555 454.78 440.478 454.78V454.986C448.363 454.78 456.44 454.78 464.902 454.78ZM474.71 155.593C474.518 156.007 474.518 156.628 474.325 157.042C479.325 157.662 484.326 158.49 489.326 159.111C489.326 158.49 489.518 157.869 489.518 157.249C484.71 156.835 479.71 156.214 474.71 155.593Z" fill="white"/>
<path d="M418.591 457.251C399 455.262 365.85 472.6 335.25 490C297 511.75 220.186 516.581 237.5 490C258.832 457.251 303.986 545.997 360.198 541.72C402.084 538.533 421.346 509.684 399 494.25C369.975 474.204 260.002 541.72 237.5 563.25C215.715 584.094 143.986 594.44 96.6768 594.44C27.92 594.44 -31.75 678 -37 735.5" stroke="white" stroke-width="2"/>
</svg>
