<svg width="572" height="439" viewBox="0 0 572 439" fill="none" xmlns="http://www.w3.org/2000/svg">
<path fill-rule="evenodd" clip-rule="evenodd" d="M247.182 70.8264C243.698 69.2695 240.024 67.6276 235.817 65.865L236.86 63.3747C241.118 65.1586 244.818 66.8119 248.313 68.3734C261.711 74.3596 272.092 78.9978 299.33 84.481C314.106 87.4556 327.814 92.4061 339.683 98.44C339.578 95.1703 339.433 91.8866 339.224 88.6155C334.841 87.324 330.464 85.9749 326.14 84.5715C307.714 78.591 290.177 71.6016 277.22 63.8598C270.744 59.9898 265.35 55.8956 261.561 51.5956C257.771 47.2949 255.505 42.691 255.505 37.84C255.505 30.5651 257.526 24.6507 261.198 20.3628C264.874 16.071 270.1 13.5312 276.275 12.8218C288.572 11.4091 304.712 17.218 320.84 30.9873C331.912 40.4394 337.235 54.6512 339.876 70.0868C340.793 75.4458 341.391 80.9818 341.79 86.5535C374.045 95.9373 406.288 102.155 419.605 103.797C426.582 104.657 435.672 107.733 445.84 112.316C456.031 116.911 467.395 123.062 478.946 130.144C502.037 144.303 525.962 162.238 542.829 179.009C566.817 202.863 603.85 210.671 640.582 207.819C677.306 204.967 713.393 191.479 735.263 173.164L736.996 175.234C714.6 193.99 677.938 207.626 640.791 210.511C603.652 213.395 565.693 205.552 540.925 180.924C524.245 164.338 500.5 146.528 477.534 132.446C466.056 125.408 454.794 119.315 444.73 114.778C434.642 110.23 425.846 107.287 419.275 106.476C405.937 104.832 374.051 98.6895 341.979 89.4193C342.189 92.9107 342.329 96.4066 342.429 99.8723C354.748 106.467 364.917 114.209 372.007 122.024C379.12 129.864 383.306 137.971 383.17 145.199C383.101 148.85 381.927 152.239 379.526 155.172C377.138 158.091 373.59 160.496 368.859 162.3C362.432 164.753 357.273 165.216 353.171 163.779C349.023 162.326 346.25 159.035 344.385 154.649C342.529 150.288 341.512 144.715 340.921 138.424C340.328 132.119 340.156 124.986 340.041 117.469C340.021 116.144 340.003 114.808 339.984 113.461C339.93 109.55 339.875 105.553 339.772 101.522C327.845 95.3045 313.907 90.1696 298.797 87.1279C271.256 81.5836 260.635 76.8378 247.182 70.8264ZM342.509 102.987C342.589 106.513 342.637 109.997 342.684 113.401C342.702 114.756 342.721 116.1 342.741 117.428C342.855 124.949 343.027 131.985 343.609 138.172C344.192 144.373 345.178 149.617 346.869 153.593C348.55 157.544 350.866 160.111 354.064 161.231C357.309 162.368 361.752 162.122 367.897 159.778C372.313 158.093 375.422 155.925 377.437 153.463C379.439 151.016 380.412 148.217 380.47 145.148C380.587 138.938 376.941 131.481 370.007 123.838C363.401 116.557 353.966 109.283 342.509 102.987ZM339.023 85.7406C338.631 80.5882 338.06 75.4869 337.214 70.5422C334.616 55.3561 329.454 41.8905 319.087 33.0408C303.268 19.5359 287.853 14.2095 276.583 15.5041C270.975 16.1484 266.414 18.4228 263.249 22.1191C260.08 25.8192 258.205 31.0665 258.205 37.84C258.205 41.8077 260.054 45.8019 263.587 49.8107C267.12 53.8203 272.254 57.7472 278.605 61.542C291.304 69.1299 308.617 76.0455 326.974 82.0034C330.957 83.2963 334.986 84.543 339.023 85.7406Z" fill="white"/>
<path fill-rule="evenodd" clip-rule="evenodd" d="M235.92 65.8977C236.263 65.0968 237.009 64.3614 236.871 63.3807C221.874 58.7813 210.169 51.1659 198.776 39.7028C193.591 34.5184 188.753 28.9869 183.938 23.4801C182.76 22.1341 181.585 20.7896 180.405 19.452C160.422 -3.21818 128.61 -3.66622 107.91 9.05775C86.8508 22.0505 77.8 41.8533 77.352 65.9571C77.1727 76.0825 80.1299 85.6703 83.7144 95.0789C89.2703 109.416 93.9301 123.932 96.26 139.254C99.038 157.086 98.9484 174.917 95.4535 192.659C91.6898 211.656 84.4313 229.398 75.2013 246.423C64.8959 265.329 51.9022 282.265 38.102 298.752C28.424 310.311 18.9251 321.87 11.6666 335.132C4.67689 347.946 -0.162135 361.297 0.64437 376.261C1.27165 387.641 5.66262 397.318 15.1615 404.666C23.4057 412.013 33.4422 416.135 44.106 418.465C59.6985 421.96 75.4701 423.841 91.3314 424.558C104.594 425.185 117.408 423.662 129.685 418.375C130.581 418.017 131.746 418.107 132.732 418.196C136.368 418.401 140.003 418.62 143.639 418.84C152.728 419.389 161.817 419.937 170.907 420.257C174.416 420.406 177.926 419.934 181.436 419.461C182.138 419.366 182.84 419.271 183.542 419.182C184.139 419.062 184.697 418.505 185.268 417.934C185.553 417.649 185.842 417.36 186.141 417.121C185.891 416.871 185.663 416.567 185.434 416.261C185.005 415.69 184.574 415.114 183.99 414.881C178.703 412.82 174.849 408.967 172.699 403.949C170.01 397.856 167.68 391.494 165.799 385.132C162.662 374.917 159.795 364.523 157.286 354.128C156.031 348.931 156.21 343.376 159.436 338.627C162.214 334.594 165.888 331.637 171.175 332.354C176.283 333.161 178.882 337.014 179.778 341.583C180.634 345.863 181.017 350.278 181.396 354.653C181.454 355.315 181.511 355.977 181.57 356.637C182.466 366.494 184.438 376.082 188.739 385.132C193.041 394.272 200.658 397.856 210.246 394.988C227.272 389.97 244.657 388.089 262.221 387.999C278.261 387.91 294.212 389.343 310.163 391.225C312.045 391.404 313.389 391.852 314.644 393.465C317.153 396.512 318.587 396.153 319.572 392.748C319.572 392.659 319.662 392.569 319.751 392.479C320.02 392.39 320.11 392.39 320.289 392.39C328.244 393.227 336.188 394.122 344.128 395.017C358.28 396.612 372.423 398.206 386.602 399.469C402.911 400.902 419.31 400.365 435.53 398.035C441.803 397.139 443.595 395.078 443.595 388.716V375.275C443.505 372.497 442.251 370.974 439.383 370.347C433.792 369.121 428.134 367.961 422.524 366.811C421.571 366.615 420.619 366.42 419.668 366.225C417.04 365.687 414.411 365.229 411.782 364.771C410.468 364.542 409.154 364.313 407.84 364.075C408.377 361.207 410.259 361.386 412.141 361.834C418.771 363.447 425.31 365.149 431.85 366.851L431.856 366.852C436.605 368.017 441.175 368.644 445.029 363.895C444.96 364.272 444.892 364.57 444.833 364.824C444.739 365.236 444.67 365.534 444.67 365.867C444.647 366.575 444.619 367.278 444.59 367.977C444.507 370.021 444.424 372.041 444.491 374.11C444.491 374.738 445.297 375.634 445.925 375.813C446.373 375.902 447.269 375.275 447.717 374.827C448.165 374.379 448.523 373.662 448.613 373.035C448.768 372.314 448.925 371.594 449.083 370.872C449.75 367.827 450.419 364.77 450.853 361.655C451.092 359.981 451.227 358.281 451.363 356.579C451.582 353.818 451.801 351.055 452.466 348.393C453.811 343.017 455.692 337.641 457.843 332.533C458.918 330.024 460.711 327.605 462.772 325.813C466.804 322.408 472.091 323.842 474.242 328.68C475.945 332.533 476.303 336.655 475.855 340.777C475.642 342.567 475.437 344.356 475.231 346.145C474.397 353.403 473.565 360.649 472.271 367.838C470.568 377.336 468.417 386.834 465.639 396.064C462.772 405.92 455.782 411.834 445.297 412.909L445.296 412.91C442.071 413.268 438.845 413.626 435.53 413.716C430.099 413.895 424.668 414.078 419.237 414.261C397.516 414.992 375.794 415.723 354.073 416.225C342.702 416.538 331.332 416.372 319.962 416.205C318.338 416.181 316.715 416.158 315.092 416.135L314.958 416.133C303.173 415.955 291.3 415.775 279.516 415.239C264.707 414.585 249.938 413.773 235.156 412.96C227.665 412.548 220.17 412.136 212.666 411.745C205.317 411.297 197.969 411.745 190.711 413.626C187.485 414.433 186.141 416.404 186.499 419.72L186.504 419.783C186.592 421.02 186.686 422.338 187.126 423.483C188.739 427.874 190.442 432.264 192.324 436.476C193.13 438.268 194.922 439.164 196.984 438.895C198.955 438.626 199.941 437.193 200.389 435.49C200.747 433.967 200.747 432.264 200.747 430.651C200.747 430.114 200.658 429.598 200.568 429.083C200.478 428.568 200.389 428.053 200.389 427.515C200.299 424.917 201.554 423.214 204.063 422.676C205.138 422.497 206.303 422.318 207.378 422.318C238.205 422.139 269.031 421.96 299.858 421.87L341.464 421.743C356.861 421.696 372.257 421.648 387.677 421.601C388.498 421.601 389.245 421.526 390.053 421.444L390.276 421.422V419.092H353.625V418.465C356.346 418.465 359.058 418.495 361.766 418.525C367.173 418.585 372.566 418.644 377.999 418.465C398.879 417.748 419.758 416.942 440.638 415.956C447.717 415.598 454.617 414.343 460.173 409.325C464.922 405.024 467.611 399.469 469.313 393.465C474.152 376.261 476.93 358.698 478.275 340.867C478.543 337.282 478.006 333.519 477.289 330.024C476.393 325.544 473.615 322.318 468.776 321.691C464.743 321.154 461.338 322.766 459.187 325.903C457.506 328.295 456.291 330.968 455.072 333.651C454.601 334.686 454.13 335.722 453.631 336.745C453.357 337.239 453.183 337.734 452.966 338.352C452.829 338.742 452.674 339.182 452.466 339.702C452.364 338.369 452.261 337.141 452.164 335.972C452.006 334.076 451.86 332.336 451.749 330.562C451.66 329.397 451.56 328.232 451.461 327.067C451.262 324.738 451.062 322.408 450.943 320.078C450.495 311.207 448.075 307.892 439.383 305.921C434.096 304.666 428.63 303.77 423.253 303.591C413.871 303.283 404.423 303.372 395.023 303.459C393.469 303.474 391.916 303.488 390.365 303.501C380.15 303.68 369.934 303.86 359.808 302.068C355.686 301.351 351.586 300.544 347.486 299.738C343.387 298.931 339.287 298.125 335.165 297.408C330.326 296.602 325.487 296.333 320.737 298.035C316.346 299.559 313.658 303.322 314.016 307.533C314.106 309.415 314.823 310.759 316.794 311.028C318.676 311.297 320.648 311.476 322.529 311.297C323.874 311.162 325.195 310.916 326.517 310.67C327.839 310.423 329.161 310.177 330.505 310.042C334.806 309.594 336.957 311.476 337.226 315.777C337.315 317.121 337.315 318.465 337.226 319.809C336.778 333.519 332.566 345.885 323.963 356.637C320.02 361.566 316.167 362.462 310.342 359.953C309.984 359.809 309.625 359.637 309.267 359.465C308.729 359.207 308.192 358.949 307.654 358.788C306.495 358.44 305.336 358.062 304.175 357.684C300.849 356.6 297.51 355.513 294.123 355.114C289.418 354.554 284.714 354.344 280.009 354.134C277.186 354.008 274.363 353.882 271.54 353.68C266.164 353.322 264.551 351.261 265.178 345.974C265.536 342.48 265.984 338.985 266.432 335.491C267.239 329.039 268.046 322.587 269.121 316.225C269.838 311.924 272.795 309.326 277.186 308.788C277.401 308.769 277.616 308.75 277.832 308.73C279.693 308.561 281.603 308.387 283.369 308.788C286.418 309.421 289.392 310.201 292.388 310.987C294.059 311.425 295.737 311.865 297.438 312.283C301.74 313.268 306.131 313.627 310.342 311.655C312.493 310.67 313.748 308.698 313.389 306.458C312.941 303.68 311.866 300.992 309.177 300.007C306.22 298.842 303.084 297.856 299.947 297.856C298.827 297.849 297.706 297.841 296.585 297.833C284.162 297.744 271.675 297.654 259.264 298.394C244.674 299.342 230.202 300.825 215.704 302.31C212.393 302.649 209.081 302.989 205.765 303.322C200.299 303.86 194.833 304.935 189.456 306.1C186.678 306.637 184.438 308.25 184.079 311.387C183.721 314.254 185.692 315.777 188.202 316.763C188.076 316.784 187.96 316.805 187.85 316.825C187.491 316.889 187.201 316.942 186.857 316.942C182.646 317.032 181.57 318.286 181.75 322.587C181.75 323.125 181.75 323.752 181.481 324.29C180.226 326.799 180.585 329.308 181.301 331.906C181.504 332.687 181.734 333.468 181.966 334.252C182.451 335.897 182.941 337.555 183.183 339.254C184.886 350.096 186.589 361.028 188.202 371.96C189.546 380.652 193.847 387.103 202.271 390.329C202.945 390.599 203.822 390.564 204.673 390.53C204.953 390.519 205.23 390.508 205.497 390.508C205.329 390.172 205.198 389.798 205.068 389.424C204.851 388.801 204.634 388.178 204.242 387.73C201.016 384.325 198.507 380.651 197.342 376.082C196.625 373.393 196.356 370.616 198.059 367.838C202.719 370.168 206.662 368.734 210.336 365.777C211.231 365.061 212.127 364.434 213.022 363.807L213.024 363.806C215.712 362.014 218.58 361.028 221.806 360.849C227.421 360.648 233.087 360.298 238.764 359.947C240.698 359.828 242.633 359.708 244.567 359.594C246 359.499 247.433 359.335 248.862 359.172C251.454 358.877 254.033 358.583 256.575 358.698C267.329 359.236 278.172 360.042 288.925 360.938C294.571 361.476 300.216 362.282 305.324 364.971C309.625 367.211 312.224 370.616 311.866 375.723C311.798 376.797 311.731 377.866 311.664 378.935C311.463 382.145 311.261 385.355 311.059 388.716C310.342 388.716 309.536 388.716 308.729 388.626C305.509 388.337 302.303 388.018 299.1 387.7C294.37 387.23 289.647 386.76 284.893 386.386C258.726 384.325 232.828 385.311 207.468 392.838C201.374 394.63 195.46 392.3 192.055 387.013C190.711 384.953 189.456 382.623 188.56 380.293C185.155 371.601 183.721 362.551 183.004 353.232C182.646 348.394 181.929 343.555 180.764 338.895C179.688 334.774 177 331.727 172.878 330.293C167.232 328.232 160.332 331.1 156.569 337.014C152.895 342.838 152.536 349.2 154.149 355.562C157.017 367.031 160.243 378.322 163.648 389.612C165.351 395.078 167.412 400.454 169.831 405.651C172.071 410.58 175.925 414.343 180.853 417.031C165.171 418.734 149.579 417.479 133.807 416.135C133.969 415.933 134.076 415.786 134.161 415.668C134.265 415.525 134.336 415.427 134.435 415.329C136.585 413.447 137.661 411.117 136.944 408.34C136.316 405.562 134.166 404.128 131.477 403.77C128.431 403.322 125.384 403.142 122.337 403.053C118.753 402.993 115.168 403.013 111.584 403.033C109.791 403.043 107.999 403.053 106.207 403.053C106.344 402.614 106.498 402.158 106.656 401.69C107.014 400.631 107.392 399.512 107.641 398.393C109.467 390.827 108.508 383.261 107.549 375.694C107.52 375.465 107.49 375.236 107.461 375.006C107.317 373.946 107.153 372.886 106.989 371.824C106.542 368.937 106.093 366.037 106.028 363.089C106.028 359.67 106.269 356.212 106.508 352.767C106.627 351.065 106.745 349.366 106.834 347.677C107.417 336.781 108 325.908 108.583 315.034C109.165 304.178 109.747 293.322 110.329 282.444C111.584 259.505 113.017 236.566 117.498 213.985C120.903 196.602 126.101 179.846 134.972 164.433C139.274 156.996 143.933 149.828 150.654 144.183C154.239 141.136 158.271 138.896 163.11 138.717C170.1 138.448 175.297 141.943 179.599 146.871C187.305 155.652 191.428 165.957 192.772 177.426C193.082 180.215 193.006 183.047 192.929 185.892C192.895 187.16 192.861 188.431 192.861 189.702C192.548 189.747 192.256 189.792 191.965 189.837C191.674 189.881 191.383 189.926 191.069 189.971C179.24 190.957 169.831 196.423 162.483 205.652C156.479 213.179 153.701 221.691 154.239 231.279C154.418 234.595 155.673 235.58 158.988 235.132C159.795 235.043 160.601 234.953 161.587 234.774C157.644 239.702 158.899 243.824 164.723 245.706C165.171 245.885 165.619 245.975 166.067 246.064C168.308 246.372 170.548 246.724 172.788 247.076C177.717 247.85 182.646 248.623 187.574 248.932C201.643 249.828 215.533 248.035 229.154 244.182C234.62 242.659 235.158 241.315 231.484 237.104C234.62 237.641 235.606 237.014 235.875 233.699C235.965 232.534 235.965 231.279 235.875 230.114C235.337 223.125 233.097 216.584 229.781 210.401C224.046 199.828 215.712 192.57 203.615 190.15C202.179 189.831 200.743 189.654 199.434 189.493C199.272 189.473 199.113 189.453 198.955 189.433C198.738 187.898 198.53 186.371 198.324 184.851C197.589 179.456 196.867 174.158 195.819 168.914C193.489 157.355 189.187 146.781 179.868 138.896C174.401 134.236 168.129 131.907 160.87 132.982C153.611 134.057 147.876 137.91 142.589 142.659C131.567 152.606 124.936 165.24 120.186 179.039C114.445 195.914 111.406 213.381 108.364 230.865C108.272 231.391 108.18 231.918 108.089 232.444C103.698 257.982 100.382 283.609 98.7691 309.505C97.873 323.214 98.3211 336.834 100.651 350.365C100.916 351.86 101.217 353.356 101.519 354.854C102.644 360.446 103.777 366.075 103.07 371.87C102.869 373.55 102.818 375.23 102.768 376.911C102.751 377.471 102.734 378.031 102.712 378.591C102.563 381.398 102.413 384.196 102.264 386.994C101.965 392.589 101.667 398.184 101.368 403.859C99.1274 404.173 96.8869 404.442 94.6464 404.711C92.4063 404.979 90.1662 405.248 87.9261 405.562C87.5608 405.615 87.1929 405.666 86.8238 405.717C83.4804 406.179 80.0418 406.653 77.6208 409.236C76.3662 410.49 75.4701 412.73 75.6493 414.343C75.9036 416.208 78.0816 416.309 79.8333 416.39C79.9337 416.395 80.0327 416.399 80.1299 416.404H81.2053C89.0911 415.777 96.5288 414.074 102.712 408.698C106.791 414.394 112.801 415.565 118.924 416.757C120.603 417.085 122.291 417.413 123.95 417.838C117.677 420.705 106.297 422.676 96.5288 422.676C81.4741 422.676 66.6882 420.705 51.9918 418.286C41.5969 416.583 31.5604 413.895 22.5096 408.34C13.2796 402.784 6.82757 394.988 4.13922 384.505C1.89893 375.723 2.52621 366.852 4.76651 358.161C8.08214 345.437 14.1757 333.967 21.9719 323.483C28.8661 314.267 36.1361 305.301 43.4154 296.324C44.841 294.566 46.2669 292.807 47.6905 291.046C62.3868 272.946 75.2013 253.77 84.9689 232.534C99.1276 201.62 103.967 169.451 98.1419 135.849C95.812 122.409 91.7794 109.416 86.8508 96.7814C83.6248 88.5377 80.6676 80.1148 79.9507 71.1543C78.7857 57.0862 81.7429 44.0039 88.8222 31.8175C103.25 7.08644 130.94 -1.42609 155.673 6.10077C165.53 9.05775 173.236 15.3301 180.047 22.857C181.795 24.7893 183.52 26.7511 185.245 28.7136C190.241 34.3958 195.242 40.084 200.837 45.0792C212.32 55.3219 221.997 61.812 235.92 65.8977ZM402.642 398.393C402.553 398.214 402.553 397.945 402.553 397.766C386.243 397.677 370.113 396.332 353.804 394.361C348.203 393.689 342.625 392.995 337.047 392.3C331.468 391.606 325.89 390.911 320.289 390.239C318.766 390.06 318.228 389.612 318.228 388.089C318.228 386.484 318.194 384.887 318.16 383.297C318.084 379.737 318.008 376.207 318.318 372.677C318.945 365.777 322.44 362.551 329.43 362.282C338.66 362.014 347.979 361.745 357.209 362.103C376.565 362.82 395.832 364.612 414.919 368.286C419.291 369.099 423.634 370.028 427.981 370.957C431.297 371.666 434.615 372.376 437.949 373.035C439.562 373.304 440.279 374.11 440.279 375.723V389.791C440.279 393.824 439.473 395.078 435.351 395.526C428.773 396.178 422.163 396.732 415.539 397.286C411.244 397.646 406.943 398.006 402.642 398.393ZM403.001 356.548V358.25C401.447 358.25 399.915 358.235 398.401 358.22C394.679 358.184 391.066 358.149 387.498 358.34C384.63 358.474 381.785 358.788 378.94 359.101C376.095 359.415 373.25 359.729 370.382 359.863C366.26 360.042 362.048 360.042 358.105 359.325C351.564 358.071 348.786 352.963 347.531 347.049C345.38 337.193 344.932 327.157 345.56 317.032C345.739 315.329 346.725 314.971 348.158 314.971C355.238 314.792 362.227 314.612 369.217 314.433C372.293 314.344 375.37 314.244 378.446 314.144C384.6 313.945 390.753 313.746 396.907 313.627C401.746 313.537 402.553 314.433 402.642 319.182C402.822 331.637 402.911 344.092 403.001 356.548ZM269.838 356.279C269.748 356.279 269.748 356.368 269.748 356.368C265.984 356.368 262.221 356.368 258.367 356.548C259.622 352.784 257.651 350.723 255.231 348.752C252.153 346.267 249.068 343.793 245.986 341.32C236.954 334.076 227.936 326.843 219.118 319.361C213.382 314.612 207.647 313.358 200.926 316.046C199.134 316.763 197.7 317.032 195.819 315.688C194.847 314.975 193.502 314.871 192.155 314.767C191.637 314.727 191.119 314.687 190.621 314.612C190.287 314.542 189.932 314.496 189.575 314.449C188.115 314.259 186.625 314.065 186.409 312.193C186.23 309.863 188.202 308.967 190.083 308.609C195.819 307.533 201.643 306.458 207.468 305.652C226.286 303.053 245.195 301.261 264.103 300.723C274.777 300.416 285.518 300.504 296.267 300.592C298.061 300.606 299.856 300.621 301.65 300.634C303.532 300.634 305.682 301.261 307.385 302.157C308.64 302.874 309.715 304.308 310.253 305.652C311.238 307.892 310.342 309.326 308.012 310.132C304.876 311.297 301.65 311.118 298.514 310.311C296.927 309.905 295.34 309.454 293.747 309.001C291.471 308.353 289.183 307.702 286.864 307.175C284.265 306.548 281.487 306.1 278.889 306.279C270.824 306.727 266.791 310.49 265.626 318.734C264.282 328.143 263.207 337.641 262.221 347.139C261.683 352.336 263.744 354.935 268.852 356.1C269.031 356.144 269.188 356.167 269.345 356.189C269.502 356.212 269.659 356.234 269.838 356.279ZM195.729 188.179H196.267C196.356 189.344 196.535 190.419 196.804 191.853C210.784 192.032 220.731 198.932 227.451 210.67C232.29 219.272 234.8 229.666 233.276 234.774C232.774 234.631 232.273 234.458 231.771 234.286C231.018 234.028 230.265 233.77 229.513 233.609C226.062 232.847 222.612 232.063 219.162 231.279C215.712 230.495 212.262 229.711 208.812 228.95C195.973 226.174 183.469 228.437 170.976 230.698C170.564 230.772 170.153 230.847 169.742 230.921L169.736 230.922C165.615 231.638 161.495 232.355 157.196 233.071C156.479 228.949 156.748 225.096 157.644 221.243C161.408 205.025 176.731 192.749 193.309 192.57C195.012 192.57 195.639 192.032 195.55 190.419C195.55 189.702 195.639 188.896 195.729 188.179ZM209.44 359.505C204.959 360.132 200.658 361.386 196.984 364.702C196.71 364.264 196.42 363.843 196.136 363.431C195.489 362.494 194.875 361.603 194.564 360.669C194.018 359.378 193.465 358.09 192.913 356.802C190.475 351.118 188.04 345.44 186.141 339.523C184.996 336.018 184.765 332.228 184.536 328.471C184.478 327.522 184.421 326.574 184.348 325.634C184.348 325.007 185.603 323.931 186.499 323.573C190.711 321.96 195.012 320.437 199.313 319.003C200.335 318.627 201.357 318.347 202.378 318.067C203.059 317.881 203.74 317.695 204.421 317.48C208.633 315.956 212.217 317.032 215.623 319.809C220.289 323.709 225.009 327.501 229.7 331.268C231.044 332.348 232.387 333.427 233.724 334.505C237.175 337.283 240.626 340.084 244.076 342.884C247.526 345.684 250.975 348.484 254.425 351.261C255.5 352.067 256.844 353.143 255.948 354.487C255.321 355.383 253.797 356.01 252.632 356.1C247.737 356.456 242.842 356.723 237.958 356.99C233.007 357.261 228.067 357.531 223.15 357.892C219.342 358.116 215.533 358.651 211.725 359.186C210.963 359.293 210.201 359.4 209.44 359.505ZM344.753 346.243C345.918 352.157 347.531 355.204 351.653 359.236C348.679 359.345 345.737 359.338 342.824 359.331C336.172 359.314 329.666 359.298 323.246 360.669C334 348.483 338.928 333.967 339.108 317.749C339.108 316.584 339.018 315.329 338.839 314.164C338.301 310.311 335.434 307.623 331.491 307.713C329.864 307.765 328.206 308.033 326.554 308.299C325.385 308.488 324.218 308.677 323.067 308.788C321.365 308.967 319.662 309.057 317.959 309.057C315.988 309.057 315.361 307.892 315.809 306.1C316.615 302.605 319.035 300.813 322.35 300.096C327.817 298.931 333.283 299.827 338.749 300.813C341.456 301.305 344.154 301.856 346.852 302.406C352.996 303.659 359.137 304.912 365.364 305.473C374.221 306.3 383.156 306.21 392.025 306.121C392.757 306.114 393.488 306.107 394.219 306.1C396.746 306.084 399.276 306.039 401.807 305.995C413.455 305.79 425.121 305.584 436.605 308.161C437.77 308.43 438.935 308.698 440.1 309.057C445.656 310.759 447.538 313.358 447.627 319.72C443.326 315.688 438.487 316.763 433.648 317.838C429.078 318.913 424.597 319.182 420.027 317.48C415.278 315.688 412.32 317.659 411.872 322.587C411.335 328.501 411.245 334.415 411.155 340.419C411.155 346.512 409.453 352.247 407.302 357.802C407.181 358.166 406.813 358.407 406.422 358.663C406.235 358.786 406.042 358.912 405.868 359.057C405.796 359.009 405.731 358.967 405.67 358.928C405.503 358.823 405.372 358.74 405.241 358.609V344.272C405.241 340.239 405.219 336.207 405.196 332.175C405.174 328.143 405.151 324.11 405.151 320.078C405.151 312.91 403.449 311.028 396.369 311.207C380.424 311.566 364.479 312.013 348.534 312.461L348.517 312.462C344.395 312.641 343.23 313.806 343.051 317.928C342.602 327.426 342.961 336.924 344.753 346.243ZM409.971 359.155C409.86 359.123 409.748 359.09 409.632 359.057C409.811 358.25 409.99 357.533 410.259 356.816C412.768 350.275 413.754 343.555 413.754 336.655C413.754 332.085 413.933 327.605 414.202 323.035C414.381 319.72 415.994 318.465 419.131 319.72C424.765 322.054 430.183 320.99 435.708 319.905C436.334 319.782 436.962 319.659 437.591 319.541C442.34 318.645 445.297 319.899 447.09 323.483C447.448 324.2 447.627 325.007 447.627 325.813C447.538 337.014 445.835 348.035 443.326 358.967C442.071 364.523 439.831 365.956 434.186 365.06C433.148 364.887 432.148 364.64 431.137 364.391C430.576 364.252 430.012 364.113 429.436 363.985C426.434 363.223 423.432 362.484 420.43 361.745C417.428 361.005 414.426 360.266 411.424 359.505C410.913 359.432 410.461 359.299 409.971 359.155ZM231.49 240.685C231.465 240.845 231.443 240.99 231.394 241.136C230.49 241.358 229.585 241.583 228.679 241.808C224.832 242.766 220.974 243.726 217.057 244.451C200.747 247.677 184.348 247.319 168.039 244.003C166.874 243.734 165.619 243.286 164.454 242.838C162.931 242.211 161.766 241.315 161.945 239.523C162.125 237.82 163.2 236.835 164.723 236.387C165.434 236.174 166.145 235.958 166.856 235.743C170.627 234.599 174.409 233.453 178.255 232.623C194.474 229.129 210.336 229.935 225.659 236.924C226.932 237.533 228.136 238.244 229.335 238.952C230.078 239.391 230.819 239.828 231.574 240.24C231.532 240.404 231.51 240.55 231.49 240.685ZM104.174 352.393L104.146 352.874C102.174 344.092 101.189 335.311 101.099 326.351C100.92 311.297 102.354 296.333 103.967 281.458C106.386 258.071 109.971 234.863 114.541 211.835C117.677 196.064 121.172 180.473 128.431 165.957C133.538 155.831 140.17 146.96 149.579 140.33C154.149 137.104 159.257 134.953 164.992 135.133C171.534 135.312 176.642 138.538 181.033 143.018C184.438 146.512 187.126 150.545 188.739 155.204C188.381 154.756 188.022 154.308 187.754 153.86C187.574 153.591 187.395 153.3 187.216 153.009C187.037 152.718 186.857 152.426 186.678 152.158C183.452 146.871 179.509 142.211 174.043 139.075C166.247 134.505 157.196 135.67 149.4 142.211C142.589 147.946 137.661 155.204 133.27 162.731C123.412 179.666 117.946 198.125 114.451 217.211C111.315 234.057 109.702 251.172 108.716 268.286C107.282 293.465 105.938 318.645 104.594 343.824C104.509 346.71 104.344 349.516 104.174 352.393ZM329.788 419.003V419.63H329.781C325.034 419.63 320.287 419.63 315.54 419.809C304.697 419.854 293.876 419.876 283.056 419.899C272.235 419.921 261.414 419.943 250.571 419.988C235.696 419.988 220.91 420.078 206.034 420.347C203.794 420.436 201.374 421.243 199.403 422.408C196.894 423.841 196.715 426.619 197.073 429.397C197.342 431.189 197.432 433.071 197.252 434.863C197.163 435.58 196.177 436.565 195.55 436.655C194.922 436.745 193.847 436.028 193.399 435.4C190.263 430.562 188.56 425.185 187.933 419.451C187.664 417.569 188.829 416.404 190.621 416.225C192.377 416.033 194.134 415.782 195.887 415.531C199.86 414.964 203.82 414.398 207.737 414.522C217.128 414.799 226.552 415.347 235.969 415.895C241.829 416.236 247.685 416.577 253.528 416.852C268.135 417.569 282.831 418.017 297.528 418.465C303.822 418.626 310.085 418.691 316.353 418.755C320.526 418.798 324.702 418.841 328.892 418.913C329.084 418.913 329.25 418.939 329.405 418.963C329.538 418.983 329.663 419.003 329.788 419.003ZM109.702 411.207C107.461 410.58 105.848 408.877 104.504 405.741C108.895 405.741 112.659 405.741 116.423 405.831L116.557 405.833C121.084 405.922 125.697 406.012 130.223 406.279C132.284 406.458 134.255 407.085 134.703 409.594C135.151 412.103 133.628 413.358 131.657 414.522C129.775 415.598 127.983 415.866 125.921 415.329C123.691 414.744 121.476 414.204 119.27 413.666C116.068 412.885 112.885 412.109 109.702 411.207ZM308.55 362.282C312.762 364.433 314.554 364.343 319.483 363.358C314.892 369.784 315.255 376.766 315.615 383.692C315.712 385.554 315.809 387.412 315.809 389.254C314.285 389.702 313.658 388.895 313.658 387.641C313.658 384.684 313.658 381.727 314.016 378.77C315.002 370.168 312.135 364.702 303.89 361.924C299.525 360.396 294.924 359.636 290.326 358.877C289.26 358.701 288.195 358.525 287.133 358.34C285.498 358.067 283.841 357.887 282.171 357.705C280.547 357.529 278.911 357.35 277.276 357.085C278.381 357.085 279.486 357.075 280.591 357.065C282.802 357.045 285.012 357.026 287.222 357.085C294.66 357.354 301.829 358.877 308.55 362.282ZM187.126 350.768C187.216 350.746 187.305 350.723 187.395 350.723C188.56 353.501 189.725 356.279 191.069 359.057C191.879 360.734 192.8 362.411 193.762 364.16C194.29 365.121 194.83 366.104 195.37 367.121C192.324 373.483 195.102 379.487 198.597 385.311C196.267 384.773 193.847 382.892 192.951 379.755C191.338 374.379 190.083 368.913 188.918 363.358C188.354 360.705 187.967 358.089 187.579 355.462C187.351 353.919 187.123 352.372 186.857 350.813C186.947 350.813 187.037 350.791 187.126 350.768ZM99.3366 406.564C99.8865 406.5 100.444 406.435 101.009 406.368C96.8873 411.207 82.8183 415.239 77.6208 412.999C78.0057 412.614 78.3514 412.2 78.6839 411.802C79.3578 410.994 79.9771 410.253 80.7572 409.953C83.1767 409.056 85.8651 408.429 88.4638 407.981C91.9188 407.432 95.4425 407.02 99.3366 406.564ZM384.63 360.849H402.821C402.885 361.23 402.937 361.577 402.986 361.902C403.075 362.495 403.154 363.016 403.27 363.537C400.607 363.199 397.992 362.878 395.397 362.558C391.791 362.115 388.226 361.676 384.63 361.207V360.849ZM211.142 361.745C206.841 362.282 202.898 362.999 199.493 365.777C203.167 367.659 207.11 366.315 211.142 361.745ZM105.221 380.024C106.565 386.924 106.834 393.734 104.146 400.365C104.325 396.958 104.505 393.573 104.684 390.188C104.863 386.808 105.042 383.427 105.221 380.024ZM447.762 352.336C447.627 352.314 447.493 352.291 447.358 352.247C447.806 349.111 448.344 345.976 448.882 342.84L448.882 342.838C448.972 342.838 449.061 342.86 449.151 342.883C449.24 342.905 449.33 342.928 449.42 342.928C449.195 344.496 448.994 346.086 448.792 347.677C448.591 349.267 448.389 350.858 448.165 352.426C448.031 352.381 447.896 352.359 447.762 352.336ZM188.565 319.874C186.822 320.6 185.485 321.156 184.079 321.781C184.079 319.72 184.079 319.72 189.367 319.541C189.089 319.656 188.823 319.767 188.565 319.874Z" fill="white"/>
</svg>
