<svg width="8" height="8" viewBox="0 0 8 8" fill="none" xmlns="http://www.w3.org/2000/svg">
<g clip-path="url(#clip0_51_2823)">
<path d="M4.31216 6.22234L7.8722 2.66224C7.9546 2.5799 8 2.46999 8 2.35278C8 2.23558 7.9546 2.12566 7.8722 2.04332L7.61008 1.78115C7.43929 1.61055 7.1617 1.61055 6.99116 1.78115L4.00166 4.77065L1.00884 1.77783C0.926433 1.69549 0.81658 1.65002 0.699442 1.65002C0.582175 1.65002 0.472322 1.69549 0.389852 1.77783L0.127805 2.04C0.0453992 2.12241 1.40506e-06 2.23226 1.39994e-06 2.34947C1.39481e-06 2.46667 0.0453991 2.57659 0.127805 2.65893L3.69109 6.22234C3.77376 6.30488 3.88413 6.35021 4.00146 6.34995C4.11925 6.35021 4.22956 6.30488 4.31216 6.22234Z" fill="white"/>
</g>
<defs>
<clipPath id="clip0_51_2823">
<rect width="8" height="8" fill="white" transform="translate(8) rotate(90)"/>
</clipPath>
</defs>
</svg>
