<svg width="24" height="24" viewBox="0 0 24 24" fill="none" xmlns="http://www.w3.org/2000/svg">
<g clip-path="url(#clip0_67:1538)">
<path d="M12.9268 3C8.55609 3 5 6.55609 5 10.9268C5 15.2978 8.55609 18.8536 12.9268 18.8536C17.2978 18.8536 20.8536 15.2978 20.8536 10.9268C20.8536 6.55609 17.2978 3 12.9268 3ZM12.9268 17.3903C9.36293 17.3903 6.46341 14.4907 6.46341 10.9269C6.46341 7.36296 9.36293 4.46341 12.9268 4.46341C16.4907 4.46341 19.3902 7.36293 19.3902 10.9268C19.3902 14.4907 16.4907 17.3903 12.9268 17.3903Z" fill="white"/>
<path d="M22.786 19.7509L18.5908 15.5558C18.305 15.27 17.842 15.27 17.5562 15.5558C17.2703 15.8414 17.2703 16.3049 17.5562 16.5905L21.7513 20.7856C21.8942 20.9285 22.0813 21 22.2686 21C22.4557 21 22.643 20.9285 22.786 20.7856C23.0718 20.5 23.0718 20.0366 22.786 19.7509Z" fill="white"/>
</g>
<defs>
<clipPath id="clip0_67:1538">
<rect width="18" height="18" fill="white" transform="translate(5 3)"/>
</clipPath>
</defs>
</svg>
